# xmcd
#
# Track frame offsets:
#	150
#	10655
#	22879
#	38217
#	51004
#	77714
#	95179
#	110442
#	124312
#	139006
#	149995
#	162986
#	178964
#	192997
#	209347
#	226743
#	237200
#	246857
#	254512
#	284625
#	295623
#
# Disc length: 4142 seconds
# Revision: 1
# Processed by: cddbd v1.5.2PL0 Copyright (c) Steve Scherf et al.
# Submitted via: dBpowerAMP V12.0
#
DISCID=3a102c15
DTITLE=Various / The Sound of Music
DYEAR=1959
DGENRE=Musical
TTITLE0=Original Broadway Cast / Act 1. Preludium
TTITLE1=Original Broadway Cast / Act 1. The Sound Of Music
TTITLE2=Original Broadway Cast / Act 1. Maria
TTITLE3=Original Broadway Cast / Act 1. My Favorite Things
TTITLE4=Original Broadway Cast / Act 1. Do-Re-Mi
TTITLE5=Original Broadway Cast / Act 1. Sixteen Going On Seventeen
TTITLE6=Original Broadway Cast / Act 1. The Lonely Goatherd
TTITLE7=Original Broadway Cast / Act 1. How Can Love Survive?
TTITLE8=Original Broadway Cast / Act 1. The Sound Of Music (reprise)
TTITLE9=Original Broadway Cast / Act 1. Laendler
TTITLE10=Original Broadway Cast / Act 1. So Long, Farewell
TTITLE11=Original Broadway Cast / Act 1. Climb Ev'ry Mountain
TTITLE12=Original Broadway Cast / Act 2. No Way To Stop It
TTITLE13=Original Broadway Cast / Act 2. An Ordinary Couple
TTITLE14=Original Broadway Cast / Act 2. Processional
TTITLE15=Original Broadway Cast / Act 2. Sixteen Going On Seventeen (reprise)
TTITLE16=Original Broadway Cast / Act 2. Edelweiss
TTITLE17=Original Broadway Cast / Act 2. Climb Ev'ry Mountain (reprise)
TTITLE18=Julie Andrews & Carol Burnett / From Switzerland: The Pratt Family
TTITLE19=Michael Kraus / Edelweiss (sung in German)
TTITLE20=Tommy Körberg / Sök Dig Till Bergen (Climb Ev'ry Mountain)
EXTD=
EXTT0=
EXTT1=
EXTT2=
EXTT3=
EXTT4=
EXTT5=
EXTT6=
EXTT7=
EXTT8=
EXTT9=
EXTT10=
EXTT11=
EXTT12=
EXTT13=
EXTT14=
EXTT15=
EXTT16=
EXTT17=
EXTT18=
EXTT19=
EXTT20=
PLAYORDER=
